<svg xmlns="http://www.w3.org/2000/svg" viewBox="0 0 64 64" width="64" height="64">
  <defs>
    <linearGradient id="g" x1="0" y1="0" x2="0" y2="1">
      <stop offset="0" stop-color="#2D2D2D"/>
      <stop offset="1" stop-color="#1b1b1b"/>
    </linearGradient>
  </defs>
  <rect x="6" y="6" width="52" height="52" rx="16" fill="url(#g)"/>
  <path d="M18 44V20h14c7 0 12 4 12 12s-5 12-12 12H18zm8-7h5c3 0 5-2 5-5s-2-5-5-5h-5v10z" fill="#F5F5DC" opacity="0.92"/>
  <path d="M42 46c-5 0-9-3-9-7h6c0 2 1 3 3 3 2 0 3-1 3-2 0-2-2-2-5-3-4-1-7-3-7-7 0-4 4-7 9-7s9 3 9 7h-6c0-2-1-3-3-3s-3 1-3 2c0 2 2 2 5 3 4 1 7 3 7 7 0 4-4 7-9 7z" fill="#2E8B57" opacity="0.85"/>
</svg>
